HIERARCHY
ROOT hip
{
  OFFSET -0.10946 89.6834 -0.668895
  CHANNELS 6 Xposition Yposition Zposition Zrotation Xrotation Yrotation
  JOINT abdomen
  {
    OFFSET 0 7.2397 0
    CHANNELS 6 Xposition Yposition Zposition Zrotation Xrotation Yrotation
    JOINT chest
    {
      OFFSET 0 16.546 0
      CHANNELS 6 Xposition Yposition Zposition Zrotation Xrotation Yrotation
      JOINT neck
      {
        OFFSET 0 34.2149 0
        CHANNELS 6 Xposition Yposition Zposition Zrotation Xrotation Yrotation
        JOINT head
        {
          OFFSET 0 6.2923 0
          CHANNELS 6 Xposition Yposition Zposition Zrotation Xrotation Yrotation
          End Site
          {
            OFFSET 0 21.2161 0
          }
        }
      }
      JOINT lCollar
      {
        OFFSET 4.0639 26.6115 -1.1234
        CHANNELS 6 Xposition Yposition Zposition Zrotation Xrotation Yrotation
        JOINT lShldr
        {
          OFFSET 14.1772 0 0
          CHANNELS 6 Xposition Yposition Zposition Zrotation Xrotation Yrotation
          JOINT lForeArm
          {
            OFFSET 26.1234 0 0
            CHANNELS 6 Xposition Yposition Zposition Zrotation Xrotation Yrotation
            JOINT lHand
            {
              OFFSET 27.7188 0 0
              CHANNELS 6 Xposition Yposition Zposition Zrotation Xrotation Yrotation
              JOINT lThumb1
              {
                OFFSET 2.2979 -0.4685 1.8313
                CHANNELS 6 Xposition Yposition Zposition Zrotation Xrotation Yrotation
                JOINT lThumb2
                {
                  OFFSET 5.2953 0 0
                  CHANNELS 6 Xposition Yposition Zposition Zrotation Xrotation Yrotation
                  JOINT lThumb3
                  {
                    OFFSET 3.0181 0 0
                    CHANNELS 6 Xposition Yposition Zposition Zrotation Xrotation Yrotation
                    End Site
                    {
                      OFFSET 2.6294 0 0
                    }
                  }
                }
              }
              JOINT lIndex1
              {
                OFFSET 9.3793 0.2991 2.5924
                CHANNELS 6 Xposition Yposition Zposition Zrotation Xrotation Yrotation
                JOINT lIndex2
                {
                  OFFSET 4.3461 0 0
                  CHANNELS 6 Xposition Yposition Zposition Zrotation Xrotation Yrotation
                  JOINT lIndex3
                  {
                    OFFSET 2.1666 0 0
                    CHANNELS 6 Xposition Yposition Zposition Zrotation Xrotation Yrotation
                    End Site
                    {
                      OFFSET 2.2048 0 0
                    }
                  }
                }
              }
              JOINT lMid1
              {
                OFFSET 9.4769 0.8376 0.2947
                CHANNELS 6 Xposition Yposition Zposition Zrotation Xrotation Yrotation
                JOINT lMid2
                {
                  OFFSET 4.772 0 0
                  CHANNELS 6 Xposition Yposition Zposition Zrotation Xrotation Yrotation
                  JOINT lMid3
                  {
                    OFFSET 2.8722 0 0
                    CHANNELS 6 Xposition Yposition Zposition Zrotation Xrotation Yrotation
                    End Site
                    {
                      OFFSET 2.0959 0 0
                    }
                  }
                }
              }
              JOINT lRing1
              {
                OFFSET 8.6586 1.0176 -1.7016
                CHANNELS 6 Xposition Yposition Zposition Zrotation Xrotation Yrotation
                JOINT lRing2
                {
                  OFFSET 4.5461 0 0
                  CHANNELS 6 Xposition Yposition Zposition Zrotation Xrotation Yrotation
                  JOINT lRing3
                  {
                    OFFSET 2.506 0 0
                    CHANNELS 6 Xposition Yposition Zposition Zrotation Xrotation Yrotation
                    End Site
                    {
                      OFFSET 2.2023 0 0
                    }
                  }
                }
              }
              JOINT lPinky1
              {
                OFFSET 7.6901 0.6618 -3.9096
                CHANNELS 6 Xposition Yposition Zposition Zrotation Xrotation Yrotation
                JOINT lPinky2
                {
                  OFFSET 3.2119 0 0
                  CHANNELS 6 Xposition Yposition Zposition Zrotation Xrotation Yrotation
                  JOINT lPinky3
                  {
                    OFFSET 1.924 0 0
                    CHANNELS 6 Xposition Yposition Zposition Zrotation Xrotation Yrotation
                    End Site
                    {
                      OFFSET 1.7829 0 0
                    }
                  }
                }
              }
            }
          }
        }
      }
      JOINT rCollar
      {
        OFFSET -4.0677 26.6109 -1.1234
        CHANNELS 6 Xposition Yposition Zposition Zrotation Xrotation Yrotation
        JOINT rShldr
        {
          OFFSET -14.1772 0 0
          CHANNELS 6 Xposition Yposition Zposition Zrotation Xrotation Yrotation
          JOINT rForeArm
          {
            OFFSET -26.1234 0 0
            CHANNELS 6 Xposition Yposition Zposition Zrotation Xrotation Yrotation
            JOINT rHand
            {
              OFFSET -27.7188 0 0
              CHANNELS 6 Xposition Yposition Zposition Zrotation Xrotation Yrotation
              JOINT rThumb1
              {
                OFFSET -2.2979 -0.4684 1.8313
                CHANNELS 6 Xposition Yposition Zposition Zrotation Xrotation Yrotation
                JOINT rThumb2
                {
                  OFFSET -5.2953 0 0
                  CHANNELS 6 Xposition Yposition Zposition Zrotation Xrotation Yrotation
                  JOINT rThumb3
                  {
                    OFFSET -3.0181 0 0
                    CHANNELS 6 Xposition Yposition Zposition Zrotation Xrotation Yrotation
                    End Site
                    {
                      OFFSET -2.6294 0 0
                    }
                  }
                }
              }
              JOINT rIndex1
              {
                OFFSET -9.3793 0.2991 2.5924
                CHANNELS 6 Xposition Yposition Zposition Zrotation Xrotation Yrotation
                JOINT rIndex2
                {
                  OFFSET -4.3461 0 0
                  CHANNELS 6 Xposition Yposition Zposition Zrotation Xrotation Yrotation
                  JOINT rIndex3
                  {
                    OFFSET -2.1666 0 0
                    CHANNELS 6 Xposition Yposition Zposition Zrotation Xrotation Yrotation
                    End Site
                    {
                      OFFSET -2.2048 0 0
                    }
                  }
                }
              }
              JOINT rMid1
              {
                OFFSET -9.4769 0.8376 0.2947
                CHANNELS 6 Xposition Yposition Zposition Zrotation Xrotation Yrotation
                JOINT rMid2
                {
                  OFFSET -4.772 0 0
                  CHANNELS 6 Xposition Yposition Zposition Zrotation Xrotation Yrotation
                  JOINT rMid3
                  {
                    OFFSET -2.8722 0 0
                    CHANNELS 6 Xposition Yposition Zposition Zrotation Xrotation Yrotation
                    End Site
                    {
                      OFFSET -2.0959 0 0
                    }
                  }
                }
              }
              JOINT rRing1
              {
                OFFSET -8.6586 1.0176 -1.7016
                CHANNELS 6 Xposition Yposition Zposition Zrotation Xrotation Yrotation
                JOINT rRing2
                {
                  OFFSET -4.5461 0 0
                  CHANNELS 6 Xposition Yposition Zposition Zrotation Xrotation Yrotation
                  JOINT rRing3
                  {
                    OFFSET -2.506 0 0
                    CHANNELS 6 Xposition Yposition Zposition Zrotation Xrotation Yrotation
                    End Site
                    {
                      OFFSET -2.2023 0 0
                    }
                  }
                }
              }
              JOINT rPinky1
              {
                OFFSET -7.6901 0.6618 -3.9096
                CHANNELS 6 Xposition Yposition Zposition Zrotation Xrotation Yrotation
                JOINT rPinky2
                {
                  OFFSET -3.2119 0 0
                  CHANNELS 6 Xposition Yposition Zposition Zrotation Xrotation Yrotation
                  JOINT rPinky3
                  {
                    OFFSET -1.924 0 0
                    CHANNELS 6 Xposition Yposition Zposition Zrotation Xrotation Yrotation
                    End Site
                    {
                      OFFSET -1.7829 0 0
                    }
                  }
                }
              }
            }
          }
        }
      }
    }
  }
  JOINT lThigh
  {
    OFFSET 8.7379 -0.0029 0.0005
    CHANNELS 6 Xposition Yposition Zposition Zrotation Xrotation Yrotation
    JOINT lShin
    {
      OFFSET 0 -46.6676 0
      CHANNELS 6 Xposition Yposition Zposition Zrotation Xrotation Yrotation
      JOINT lFoot
      {
        OFFSET 0 -40.1476 0
        CHANNELS 6 Xposition Yposition Zposition Zrotation Xrotation Yrotation
        JOINT lToes
        {
          OFFSET 0 -8.8846 14.2294
          CHANNELS 6 Xposition Yposition Zposition Zrotation Xrotation Yrotation
          End Site
          {
            OFFSET 0 0 6.296
          }
        }
      }
    }
  }
  JOINT rThigh
  {
    OFFSET -8.7379 0.0029 -0.0005
    CHANNELS 6 Xposition Yposition Zposition Zrotation Xrotation Yrotation
    JOINT rShin
    {
      OFFSET 0 -46.6676 0
      CHANNELS 6 Xposition Yposition Zposition Zrotation Xrotation Yrotation
      JOINT rFoot
      {
        OFFSET 0 -40.1476 0
        CHANNELS 6 Xposition Yposition Zposition Zrotation Xrotation Yrotation
        JOINT rToes
        {
          OFFSET 0 -8.8846 14.2294
          CHANNELS 6 Xposition Yposition Zposition Zrotation Xrotation Yrotation
          End Site
          {
            OFFSET 0 0 6.296
          }
        }
      }
    }
  }
}
MOTION
Frames:	4
Frame Time:	0.0333333
-0.10946 89.6834 -0.668895 -3.11889 -3.31398 -43.3142 0 7.2397 -1.77636e-15 -1.87601 6.96178 8.00839 0 16.546 0 -4.68072 15.5136 16.477 2.22045e-16 34.2149 0 0.822912 26.8719 -1.4329 1.77636e-15 6.2923 0 -1.7725 -28.4558 19.5395 4.0639 26.6115 -1.1234 -1.67811 -3.42733 4.16781 14.1772 2.84217e-14 3.55271e-15 -69.6995 -1.2938 -3.24524 26.1234 0 -7.10543e-15 3.37919 5.75606 -48.0544 27.7188 0 0 14.0781 12.1065 -1.83731 2.2979 -0.4685 1.8313 61.4415 74.0275 -94.4789 5.2953 -7.10543e-15 -7.10543e-15 0.217286 3.02224 0.809984 3.0181 0 0 12.4883 -8.89576e-05 -1.15514e-05 9.3793 0.2991 2.5924 0.516948 -1.66001 -8.48313 4.3461 1.42109e-14 0 -16.2538 -0.155059 2.44348 2.1666 1.42109e-14 1.42109e-14 -2.1684 -4.60372e-06 -7.16229e-06 9.4769 0.8376 0.2947 -7.79007 -4.3114 9.25589 4.772 -1.42109e-14 0 -21.8662 -0.377532 1.62482 2.8722 0 7.10543e-15 3.95741 0.0710973 0.399406 8.6586 1.0176 -1.7016 -24.6571 -2.57703 14.8859 4.5461 -1.42109e-14 -3.55271e-15 -32.0634 0.645506 -1.54613 2.506 0 0 6.7605 -7.2134e-07 -9.80431e-05 7.6901 0.6618 -3.9096 -23.6524 -14.8547 19.2866 3.2119 0 0 -39.5974 0.0765624 3.58028 1.924 3.55271e-15 0 4.41309 -2.97104e-06 -5.78056e-06 -4.0677 26.6109 -1.1234 5.14831 -2.73552 4.26974 -14.1772 0 -7.10543e-15 61.2579 -12.0883 -21.3763 -26.1234 0 1.42109e-14 6.56058 -1.04825 42.1905 -27.7188 0 -3.55271e-15 17.4122 5.73535 8.30912 -2.2979 -0.4684 1.8313 -37.3108 60.5987 62.8336 -5.2953 1.42109e-14 -5.32907e-15 19.9722 1.42516 -7.53449 -3.0181 0 -8.88178e-16 -12.4883 -8.58915e-05 9.62211e-05 -9.3793 0.2991 2.5924 -0.593943 -2.44602 0.289366 -4.3461 -7.10543e-15 7.10543e-15 16.741 -0.16265 -2.82113 -2.1666 -3.55271e-15 3.55271e-15 2.1682 -3.29169e-06 -1.38716e-06 -9.4769 0.8376 0.2947 7.28754 -5.19225 -1.95089 -4.772 0 -3.55271e-15 30.499 -0.765 -2.53241 -2.8722 -5.32907e-15 0 -3.95751 0.0709985 -0.399397 -8.6586 1.0176 -1.7016 16.1825 2.38418 -7.76493 -4.5461 3.55271e-15 -1.77636e-15 37.483 1.092 2.37568 -2.506 -7.10543e-15 -1.77636e-15 -6.7605 3.1619e-06 5.16273e-07 -7.6901 0.6618 -3.9096 16.3072 -9.1835 -10.916 -3.2119 3.55271e-15 -1.77636e-15 41.6956 0.75211 -1.95382 -1.924 1.42109e-14 -1.77636e-15 -4.413 -9.04429e-07 2.54191e-06 8.7379 -0.0029 0.0005 14.8426 -23.181 20.5076 1.77636e-15 -46.6676 0 7.41286 38.9914 -16.9932 0 -40.1476 1.77636e-15 -7.89357 -10.3041 7.22905 0 -8.8846 14.2294 0.0001 0 -3.18055e-15 -8.7379 0.0029 -0.0005 -15.021 -0.625288 -22.5897 0 -46.6676 -3.55271e-15 -4.6802 38.632 -7.71089 7.10543e-15 -40.1476 2.66454e-15 20.974 -23.8179 -3.40681 3.55271e-15 -8.8846 14.2294 0 9.31803e-18 -0 
-0.0959137 89.6929 -0.678407 -3.13666 -3.3244 -43.3362 -1.11022e-16 7.2397 0 -1.87343 6.95528 8.00966 -4.44089e-16 16.546 0 -4.67353 15.5011 16.4784 0 34.2149 7.10543e-15 0.814254 26.9225 -1.43934 -8.88178e-16 6.2923 0 -1.74985 -28.3936 19.5256 4.0639 26.6115 -1.1234 -1.65837 -3.42678 4.1535 14.1772 0 7.10543e-15 -69.7101 -1.28445 -3.26033 26.1234 7.10543e-15 0 3.36966 5.74403 -48.0658 27.7188 1.42109e-14 0 14.0415 12.0929 -1.81401 2.2979 -0.4685 1.8313 61.5365 74.1239 -94.5933 5.2953 7.10543e-15 0 0.204916 3.02017 0.802346 3.0181 0 0 12.4883 -8.89576e-05 -1.15514e-05 9.3793 0.2991 2.5924 0.457526 -1.66278 -8.47706 4.3461 -1.42109e-14 0 -16.2835 -0.156375 2.44271 2.1666 0 0 -2.1684 -4.60372e-06 -7.16229e-06 9.4769 0.8376 0.2947 -7.83004 -4.31636 9.24042 4.772 1.42109e-14 0 -21.8715 -0.37705 1.62514 2.8722 0 0 3.95741 0.0710973 0.399406 8.6586 1.0176 -1.7016 -24.7052 -2.58324 14.8662 4.5461 0 0 -32.071 0.645438 -1.54634 2.506 3.55271e-15 0 6.7605 -7.2134e-07 -9.80431e-05 7.6901 0.6618 -3.9096 -23.6927 -14.8618 19.2652 3.2119 7.10543e-15 0 -39.6067 0.0755963 3.58219 1.924 -3.55271e-15 0 4.41309 -2.97104e-06 -5.78056e-06 -4.0677 26.6109 -1.1234 5.0816 -2.73878 4.2514 -14.1772 2.84217e-14 -7.10543e-15 61.3017 -12.054 -21.3439 -26.1234 -1.42109e-14 7.10543e-15 6.58297 -0.963639 42.1983 -27.7188 0 -1.77636e-15 17.3382 5.67338 8.28852 -2.2979 -0.4684 1.8313 -37.173 60.5897 62.6272 -5.2953 -7.10543e-15 -3.55271e-15 20.0351 1.42482 -7.48902 -3.0181 7.10543e-15 1.77636e-15 -12.4883 -8.58915e-05 9.62211e-05 -9.3793 0.2991 2.5924 -0.70612 -2.44017 0.309432 -4.3461 0 -1.42109e-14 16.7117 -0.1596 -2.82129 -2.1666 3.55271e-15 -3.55271e-15 2.1682 -3.29169e-06 -1.38716e-06 -9.4769 0.8376 0.2947 7.29651 -5.19185 -1.96597 -4.772 0 0 30.4752 -0.764816 -2.53097 -2.8722 3.55271e-15 -3.55271e-15 -3.95751 0.0709985 -0.399397 -8.6586 1.0176 -1.7016 16.1819 2.38369 -7.77534 -4.5461 3.55271e-15 0 37.4629 1.09116 2.37499 -2.506 0 3.55271e-15 -6.7605 3.1619e-06 5.16273e-07 -7.6901 0.6618 -3.9096 16.3302 -9.18514 -10.9171 -3.2119 0 1.77636e-15 41.7194 0.754009 -1.95895 -1.924 7.10543e-15 -3.55271e-15 -4.413 -9.04429e-07 2.54191e-06 8.7379 -0.0029 0.0005 14.8372 -23.1486 20.5018 0 -46.6676 0 7.41217 38.9511 -16.9688 0 -40.1476 0 -7.90241 -10.2761 7.23004 0 -8.8846 14.2294 0.0001 -9.93923e-17 -3.18055e-15 -8.7379 0.0029 -0.0005 -15.0226 -0.612562 -22.5889 7.10543e-15 -46.6676 -7.10543e-15 -4.66907 38.608 -7.69238 -7.10543e-15 -40.1476 0 20.9473 -23.7971 -3.41773 0 -8.8846 14.2294 -9.93923e-17 3.10601e-18 -3.97569e-16 
-0.082367 89.7024 -0.68792 -3.15443 -3.33479 -43.3583 1.11022e-16 7.2397 0 -1.87084 6.94879 8.01094 4.44089e-16 16.546 0 -4.66633 15.4886 16.4798 -6.66134e-16 34.2149 0 0.805609 26.973 -1.44578 -4.44089e-16 6.2923 -1.42109e-14 -1.72718 -28.3315 19.5117 4.0639 26.6115 -1.1234 -1.63863 -3.42623 4.13918 14.1772 2.84217e-14 7.10543e-15 -69.7207 -1.27511 -3.27541 26.1234 -7.10543e-15 3.55271e-15 3.36013 5.73199 -48.0772 27.7188 0 7.10543e-15 14.005 12.0793 -1.79072 2.2979 -0.4685 1.8313 61.6329 74.2202 -94.7092 5.2953 0 -1.42109e-14 0.192546 3.01811 0.794708 3.0181 7.10543e-15 0 12.4883 -8.89576e-05 -1.15514e-05 9.3793 0.2991 2.5924 0.398105 -1.66554 -8.47099 4.3461 -1.42109e-14 7.10543e-15 -16.3131 -0.157691 2.44195 2.1666 0 0 -2.1684 -4.60372e-06 -7.16229e-06 9.4769 0.8376 0.2947 -7.87001 -4.32131 9.22495 4.772 0 0 -21.8768 -0.376568 1.62545 2.8722 0 0 3.95741 0.0710973 0.399406 8.6586 1.0176 -1.7016 -24.7534 -2.58945 14.8466 4.5461 0 -3.55271e-15 -32.0785 0.64537 -1.54654 2.506 -3.55271e-15 0 6.7605 -7.2134e-07 -9.80431e-05 7.6901 0.6618 -3.9096 -23.733 -14.8689 19.2439 3.2119 -7.10543e-15 0 -39.616 0.0746301 3.58411 1.924 -1.77636e-15 3.55271e-15 4.41309 -2.97104e-06 -5.78056e-06 -4.0677 26.6109 -1.1234 5.01489 -2.74204 4.23306 -14.1772 0 7.10543e-15 61.3454 -12.0197 -21.3115 -26.1234 -1.42109e-14 -7.10543e-15 6.60533 -0.879055 42.2064 -27.7188 0 3.55271e-15 17.2642 5.61141 8.26794 -2.2979 -0.4684 1.8313 -37.0353 60.5803 62.421 -5.2953 -7.10543e-15 5.32907e-15 20.098 1.42447 -7.44354 -3.0181 0 1.77636e-15 -12.4883 -8.58915e-05 9.62211e-05 -9.3793 0.2991 2.5924 -0.8183 -2.43433 0.329497 -4.3461 7.10543e-15 -1.42109e-14 16.6825 -0.15655 -2.82146 -2.1666 -7.10543e-15 -3.55271e-15 2.1682 -3.29169e-06 -1.38716e-06 -9.4769 0.8376 0.2947 7.30548 -5.19146 -1.98105 -4.772 0 -7.10543e-15 30.4513 -0.764633 -2.52953 -2.8722 -1.77636e-15 0 -3.95751 0.0709985 -0.399397 -8.6586 1.0176 -1.7016 16.1812 2.3832 -7.78575 -4.5461 0 0 37.4427 1.09032 2.37429 -2.506 0 3.55271e-15 -6.7605 3.1619e-06 5.16273e-07 -7.6901 0.6618 -3.9096 16.3532 -9.18678 -10.9182 -3.2119 0 -3.55271e-15 41.7432 0.755908 -1.96408 -1.924 7.10543e-15 1.77636e-15 -4.413 -9.04429e-07 2.54191e-06 8.7379 -0.0029 0.0005 14.8318 -23.1163 20.496 1.77636e-15 -46.6676 0 7.41152 38.9108 -16.9444 0 -40.1476 -5.32907e-15 -7.91124 -10.248 7.23103 0 -8.8846 14.2294 0.0001 9.93923e-17 -0 -8.7379 0.0029 -0.0005 -15.0242 -0.599837 -22.5882 0 -46.6676 7.10543e-15 -4.65792 38.584 -7.67389 -3.55271e-15 -40.1476 8.88178e-16 20.9206 -23.7763 -3.42865 0 -8.8846 14.2294 -9.93923e-17 9.31803e-18 -0 
-0.0727313 89.7152 -0.682267 -3.17519 -3.34966 -43.3601 0 7.2397 8.88178e-16 -1.8627 6.93397 8.00416 0 16.546 0 -4.64858 15.4604 16.464 -4.44089e-16 34.2149 0 0.799364 27.0762 -1.44883 -4.44089e-16 6.2923 0 -1.68584 -28.2 19.5159 4.0639 26.6115 -1.1234 -1.55276 -3.42062 4.16254 14.1772 2.84217e-14 7.10543e-15 -69.76 -1.25683 -3.26812 26.1234 0 0 3.34877 5.73873 -48.1139 27.7188 0 -1.42109e-14 13.8714 12.0647 -1.75167 2.2979 -0.4685 1.8313 61.7104 74.3007 -94.7907 5.2953 0 -7.10543e-15 0.186917 3.01675 0.791146 3.0181 7.10543e-15 0 12.4883 -8.89576e-05 -1.15514e-05 9.3793 0.2991 2.5924 0.347886 -1.66482 -8.46769 4.3461 -1.42109e-14 0 -16.3711 -0.160266 2.44045 2.1666 -1.42109e-14 0 -2.1684 -4.60372e-06 -7.16229e-06 9.4769 0.8376 0.2947 -7.92182 -4.3288 9.18656 4.772 0 0 -21.9065 -0.377086 1.62655 2.8722 0 0 3.95741 0.0710973 0.399406 8.6586 1.0176 -1.7016 -24.8072 -2.59908 14.8028 4.5461 0 0 -32.1097 0.646081 -1.54704 2.506 -3.55271e-15 0 6.7605 -7.2134e-07 -9.80431e-05 7.6901 0.6618 -3.9096 -23.7883 -14.8837 19.2006 3.2119 0 0 -39.6472 0.0724602 3.59077 1.924 3.55271e-15 0 4.41309 -2.97104e-06 -5.78056e-06 -4.0677 26.6109 -1.1234 4.89969 -2.74741 4.18487 -14.1772 2.84217e-14 0 61.4381 -11.9732 -21.3093 -26.1234 0 7.10543e-15 6.63894 -0.738949 42.2313 -27.7188 0 3.55271e-15 17.1674 5.5116 8.23349 -2.2979 -0.4684 1.8313 -36.9307 60.6111 62.2716 -5.2953 7.10543e-15 -3.55271e-15 20.1804 1.41629 -7.43666 -3.0181 0 4.44089e-15 -12.4883 -8.58915e-05 9.62211e-05 -9.3793 0.2991 2.5924 -0.896577 -2.43054 0.346653 -4.3461 -7.10543e-15 -3.55271e-15 16.6621 -0.154413 -2.82158 -2.1666 0 3.55271e-15 2.1682 -3.29169e-06 -1.38716e-06 -9.4769 0.8376 0.2947 7.31264 -5.19131 -1.99039 -4.772 0 -3.55271e-15 30.4109 -0.763233 -2.52748 -2.8722 -3.55271e-15 -3.55271e-15 -3.95751 0.0709985 -0.399397 -8.6586 1.0176 -1.7016 16.1688 2.3841 -7.79463 -4.5461 -1.06581e-14 3.55271e-15 37.4189 1.08933 2.37348 -2.506 0 -3.55271e-15 -6.7605 3.1619e-06 5.16273e-07 -7.6901 0.6618 -3.9096 16.3641 -9.1878 -10.9211 -3.2119 3.55271e-15 3.55271e-15 41.7446 0.757421 -1.965 -1.924 1.42109e-14 3.55271e-15 -4.413 -9.04429e-07 2.54191e-06 8.7379 -0.0029 0.0005 14.8195 -23.0751 20.4898 0 -46.6676 0 7.40712 38.8719 -16.9391 3.55271e-15 -40.1476 0 -7.90582 -10.2277 7.23302 3.55271e-15 -8.8846 14.2294 0.0001 9.93923e-17 3.18055e-15 -8.7379 0.0029 -0.0005 -15.0223 -0.553408 -22.5845 -3.55271e-15 -46.6676 3.55271e-15 -4.63918 38.5281 -7.68014 0 -40.1476 8.88178e-16 20.9049 -23.7426 -3.43909 3.55271e-15 -8.8846 14.2294 -9.93923e-17 6.21202e-18 -0 
